<svg xmlns="http://www.w3.org/2000/svg" viewBox="0 0 1407.03 201.39"><defs><style>.cls-1{fill:#fff;opacity:0.5;}</style></defs><title>header-bg</title><g id="Layer_2" data-name="Layer 2"><g id="Layer_1-2" data-name="Layer 1"><path class="cls-1" d="M860,115.23H776.44V81h52a.65.65,0,0,0,.65-.66V10.56a.66.66,0,0,0-.65-.66H809.11V0h-1.44V9.9H758.75a.67.67,0,0,0-.66.66V62.65H733V57.32h6.7a.89.89,0,0,0,.9-.89V0h-1.79V55.53H733V0h-1.43V55.53H690.74V40.18a.85.85,0,0,0-.85-.86h-44V0h-1.79V39.32h-45a.85.85,0,0,0-.86.86V108H580.57a1,1,0,0,0-1,1v91.88h-6.12V119a1,1,0,0,0-1-1H478.35v-47H588A1.13,1.13,0,0,0,589.15,70V0h-2.27V68.81H478.35V60h31.51a.93.93,0,0,0,.93-.93V0h-1.86V58.09H478.35V26.18A1.37,1.37,0,0,0,477,24.8h-8.11V0H466.6V24.8H412.05V16h24.44a.93.93,0,0,0,.93-.93V0h-1.86V14.12H412.05V0h-1.86V14.12H375.93V0h-2.05V14.12H339.32V0h-1.85V15a.93.93,0,0,0,.92.93h35.49V24.8H331.44a1.37,1.37,0,0,0-1.37,1.38V82.33H278.5v-10a.85.85,0,0,0-.86-.86H267.31V46.92h35.81a.9.9,0,0,0,.9-.9V0h-1.8V45.13H267.31V0h-2.05V45.13h-10V14.28a1.54,1.54,0,0,0-1.55-1.55H208.82V0H207V12.73H150.58V0h-2.79V12.73H90.05a1.55,1.55,0,0,0-1.55,1.55V45.09H2.79V0H0V46.48a1.4,1.4,0,0,0,1.39,1.4H88.5V178a1.56,1.56,0,0,0,1.55,1.55H233.73v15.56a.76.76,0,0,0,.75.75h80.28a.76.76,0,0,0,.75-.75V160.25H328v22.53a.73.73,0,0,0,.73.73h39v15.73a.52.52,0,0,0,.52.52h55.13a.52.52,0,0,0,.52-.52V173.09h41.37v28.3h2v-28.3H477a1.37,1.37,0,0,0,1.37-1.37V120h93.14v80.82H553.81a.53.53,0,0,0-.53.53h58a.54.54,0,0,0-.54-.53H581.53V109.94h16.71v21a.85.85,0,0,0,.86.85h82.57v69.57h1.92V131.82h6.3a.85.85,0,0,0,.85-.85V57.32h40.87v6a.71.71,0,0,0,.71.71h25.77V79.55H703.33a.68.68,0,0,0-.69.68v72.43a.69.69,0,0,0,.69.68h15.08v29.85h-1.25a.74.74,0,0,0-.75.75v17.45h1.51V184.7h.49v16.69H720V184.7h46.6v16.69h1.75V184.7h28.38v16.69h1.52V183.94a.75.75,0,0,0-.76-.75H768.31V153.34h7.44a.69.69,0,0,0,.69-.68V127.91h24v73.48H802V127.14a.77.77,0,0,0-.77-.77H776.44V117h82.7v84.42h1.74V116.1A.87.87,0,0,0,860,115.23Zm-448-87.68H466.6V58.09H412.05ZM375.93,16h34.26V24.8H375.93ZM332.81,27.55h41.07V82.33H332.81Zm0,74h36.68v3.71H332.81Zm72,43.06v25.72h-36V160.25h1.27a.56.56,0,0,0,.55-.56V144.62Zm-34.2-1V106.72h34.2v36.86Zm34.2,29.51v9h-36v-9Zm-36-14V144.62h.71v14.52ZM278.5,84.38h51.57v16.08h-18.7a.56.56,0,0,0-.56.55v13H278.5ZM267.31,73.23h9.47v9.1h-9.47Zm-12-26.31h10v24.6h-10Zm0,26.31h10V83.36a1,1,0,0,0,1,1h10.49v29.67H255.29Zm0,42.33h21.49v47H255.29ZM208.82,15.82H252.2V45.13H208.82Zm-117.23,0h56.2V45.09H91.59ZM233.73,176.43H91.59V47.88h57.59a1.4,1.4,0,0,0,1.4-1.4V15.82H207V46a.9.9,0,0,0,.9.9H252.2v24.6H186.61a.85.85,0,0,0-.86.86v91a.85.85,0,0,0,.86.86h47.12Zm0-61.63v47.75H187.47V73.23H252.2v40.82H234.48A.75.75,0,0,0,233.73,114.8Zm1.51,47.75v-47h17v47Zm17,1.72v12.16h-17V164.27Zm61.8,30H235.24v-14.8h18.5a1.55,1.55,0,0,0,1.55-1.55v-13.7h22.35a.85.85,0,0,0,.86-.86V115.56h32.31v44.13a.56.56,0,0,0,.56.56H314Zm0-35.18h-2.08V115.56H314ZM328,106v53.14h-12.5V114.8a.75.75,0,0,0-.75-.75h-2.84V101.56h18.15v3.71h-1.33A.73.73,0,0,0,328,106Zm2.06.72v52.42h-.61V106.72Zm37.67,75.34H329.46V160.25h.61v11.47a1.37,1.37,0,0,0,1.37,1.37h36.3Zm0-11.72H332.81V160.25h34.93Zm0-26.24v15H332.81V106.72h36.68v36.86h-1.23A.52.52,0,0,0,367.74,144.1Zm55.13,54.62H368.78V183.51h36.74a.73.73,0,0,0,.73-.73v-9.69h16.62Zm0-28.38H406.25V144.62h16.62Zm52.74,0h-8.33V120h8.33Zm0-52.3h-9.33a1,1,0,0,0-1,1v51.3H423.91V144.1a.52.52,0,0,0-.52-.52H406.25V106a.73.73,0,0,0-.73-.73H370.6V101a.55.55,0,0,0-.55-.55H332.81V84.38h42.1a1,1,0,0,0,1-1V27.55h34.26V59a.92.92,0,0,0,.93.93H466.6V70a1.13,1.13,0,0,0,1.14,1.13h7.87Zm0-49.23h-6.74V60h6.74Zm0-10.72h-6.74V27.55h6.74Zm206.06,72H600V109.94h81.72Zm7.36,0h-5.44V109a1,1,0,0,0-1-1H600V41h44.13v15.4a.89.89,0,0,0,.89.89H689Zm0-74.58H645.87V41H689Zm70.38-44.31h48.26V62.65H759.41Zm7.15,172H720V153.34h46.6Zm0-31.22H720V127.91h46.6Zm8.51,0h-6.76V127.91h6.76Zm0-25.6h-6.76V117h6.76Zm0-11.14h-7.64a.87.87,0,0,0-.87.87v10.27H719.18a.77.77,0,0,0-.77.77V152H704V80.91h54.55a.58.58,0,0,0,.19,0h16.32Zm1-35.6a.66.66,0,0,0-.32-.08H759.41V64.08h49a.71.71,0,0,0,.72-.71V11.22h18.72V79.63Zm523.16,61.26h-30.11V112.2h8.64a.33.33,0,0,0,.33-.33V77a.33.33,0,0,0-.33-.33h-20.59V68a.31.31,0,0,0-.32-.31h-14.64v0h16.07a.26.26,0,0,0,.26-.25V40.13a.26.26,0,0,0-.26-.26H1231a.26.26,0,0,0-.26.26v5.94h-21.46a.31.31,0,0,0-.31.31v17.3h-12.75a.3.3,0,0,0-.3.31V86.67h-3.43a.33.33,0,0,0-.33.33v35a.33.33,0,0,0,.33.33h35a.33.33,0,0,0,.33-.33V101.54h14.7v3.71H1229a.38.38,0,0,0-.38.38v22H1204.5a.42.42,0,0,0-.42.42v44.06a.42.42,0,0,0,.42.42h44.06a.42.42,0,0,0,.42-.42V145.8h5.8v39.55a.41.41,0,0,0,.42.41h44a.41.41,0,0,0,.42-.41v-44A.42.42,0,0,0,1299.23,140.89Zm-42.06-39.67V77.29h20.26v34.25h-8.31v-5.91a.38.38,0,0,0-.38-.38h-25.56v-3.71h13.67A.32.32,0,0,0,1257.17,101.22Zm11.2,4.78v5.54h-25.19V106Zm-25.19-5.09V77.29h13.36v23.62Zm-12-60.53H1258v26.8h-15.81V46.38a.31.31,0,0,0-.31-.31h-10.67Zm0,6.31h10.36V67.18h-10.36Zm-21.68,0h21.16V67.44a.26.26,0,0,0,.26.25h10.62v0h-12.91V64a.31.31,0,0,0-.3-.31h-18.83Zm32,21.65V78.73h-12.91V68.34Zm-32-4h18.52v3.42h-4.42a.31.31,0,0,0-.31.31V78.73h-13.79Zm18.52,4V78.73H1224V68.34Zm-31.58-4h12.45V79a.3.3,0,0,0,.31.3h14.09v7.33h-26.85Zm0,23h26.85v8.54h-26.85Zm30.67,34.37h-34.37V87.33h3.1v8.84a.3.3,0,0,0,.3.31h27.15v4.74a.31.31,0,0,0,.31.32h3.51Zm0-20.79H1224V96.48h3.19Zm0-5H1224V87.33h3.19Zm.33-9.2H1224V79.34h4.1V95.87h-.25V87A.33.33,0,0,0,1227.49,86.67Zm.33,14.24V96.48h.56a.31.31,0,0,0,.3-.31V79.34h13.22a.3.3,0,0,0,.31-.3V68.34h14.33v8.29h-13.69a.33.33,0,0,0-.33.33v24Zm20.33,70.75h-43.24V128.43h23.66v17a.38.38,0,0,0,.38.38h19.2Zm0-26.61h-18.83V128.43h18.83Zm6.63-3.74v3.74H1249V128a.42.42,0,0,0-.42-.42h-19.24V106h13.2v5.87a.33.33,0,0,0,.33.33h25.52v28.69H1255.2A.42.42,0,0,0,1254.78,141.31Zm13.59.41v3.33h-12.76v-3.33Zm30.45,43.21h-43.21V145.8h13.13a.38.38,0,0,0,.38-.38v-3.7h29.7Zm84.31-78.49h-18.06a.18.18,0,0,0-.17.17v14.84h-6.7a.18.18,0,0,0-.18.19v19.72a.19.19,0,0,0,.18.19h19.73a.19.19,0,0,0,.18-.19V124.85h5a.18.18,0,0,0,.17-.18V106.61A.18.18,0,0,0,1383.13,106.44Zm-5.39,34.74h-19.35V121.82h6.51v2.85a.18.18,0,0,0,.17.18h12.67Zm0-16.68h-12.5v-2.68h12.5Zm5.22,0h-4.85v-2.86a.18.18,0,0,0-.18-.19h-12.69V106.78H1383Zm-250.7,40.41h-41.88v-49a.5.5,0,0,0-.5-.5h-39.56V80.51a.46.46,0,0,0-.45-.46H1001.3a.47.47,0,0,0-.46.46v48.57a.46.46,0,0,0,.46.45h35.21v39.22a.5.5,0,0,0,.5.5h42.46v32.14h1V169.25h9.43a.5.5,0,0,0,.5-.5V165.9h41.38v35.49h1v-36A.49.49,0,0,0,1132.26,164.91Zm-95.75-49v12.75h-34.75V81h47.65v34.4H1037A.5.5,0,0,0,1036.51,115.87Zm12.9.5v12.25h-11.9V116.37Zm40,51.88h-8.94V165.9h8.94Zm0-3.34H1080a.49.49,0,0,0-.49.5v2.84h-42V129.53h12.36a.45.45,0,0,0,.45-.45V116.37h39.07ZM1311.77,0V27.94h-17.43V26a.21.21,0,0,0-.22-.21h-11.7V0h-.56V25.76h-10.64a.21.21,0,0,0-.22.21V48.88a.21.21,0,0,0,.22.21h22.9a.21.21,0,0,0,.22-.21V28.5h17.72a.29.29,0,0,0,.28-.28V0Zm-17.86,48.66h-22.47V26.19h10.42v2a.28.28,0,0,0,.28.28h11.77Zm0-20.72h-11.49V26.19h11.49Zm8.9,30.41h-20.7a.2.2,0,0,0-.2.2v20.7a.2.2,0,0,0,.2.19h20.7a.2.2,0,0,0,.19-.19V58.55A.2.2,0,0,0,1302.81,58.35Zm-.2,20.7H1282.3V58.75h20.31ZM1182,0V15.83H1158V0h-.46V16.06a.23.23,0,0,0,.23.23h24.54a.23.23,0,0,0,.23-.23V0Zm94.08,0V4.36h-28.9V0h-.56V4.64a.29.29,0,0,0,.28.28h29.46a.28.28,0,0,0,.27-.28V0ZM1088,0V33.81h-19.29V29.67a.44.44,0,0,0-.44-.44h-15V18.91H1077a.36.36,0,0,0,.36-.36V0h-.72V18.19h-23.34V0h-.66V18.19h-13.43V0h-.72V18.55a.36.36,0,0,0,.36.36h13.79V29.23h-31a.44.44,0,0,0-.44.44V76.31a.44.44,0,0,0,.44.44h46.65a.44.44,0,0,0,.44-.44V34.48h19.62a.34.34,0,0,0,.34-.34V0Zm-20.17,75.87h-45.77V30.11h30.58v4a.34.34,0,0,0,.33.34h14.86Zm0-42.06h-14.53v-3.7h14.53Zm-46.28,101H969.24a.49.49,0,0,0-.49.49V187.6a.5.5,0,0,0,.49.5h52.34a.5.5,0,0,0,.5-.5V135.26A.49.49,0,0,0,1021.58,134.77Zm-.49,52.34H969.74V135.76h51.35Zm165.12-94.36h-38.45a.37.37,0,0,0-.36.37v19.54h-18.11a.41.41,0,0,0-.41.41v43.19a.41.41,0,0,0,.41.41h43.2a.41.41,0,0,0,.41-.41V131.93h13.31a.37.37,0,0,0,.36-.37V93.12A.37.37,0,0,0,1186.21,92.75Zm-14.13,63.11H1129.7V113.47h17.7v18.09a.37.37,0,0,0,.36.37h24.32Zm0-24.66h-24V113.47h24Zm13.77,0H1172.9V113.07a.41.41,0,0,0-.41-.41h-24.37V93.48h37.73ZM1265.59,6.37H1244.4V0h-.58V6.37h-6.75a.27.27,0,0,0-.27.26V29.88h-19.09V4a.3.3,0,0,0-.3-.3h-3.48V0h-.57V3.73h-27.53a.3.3,0,0,0-.3.3v14h-31.72a.34.34,0,0,0-.34.34V46.07h-17a.34.34,0,0,0-.34.34v5h-33.7a.37.37,0,0,0-.37.37V91.22a.37.37,0,0,0,.37.37h39.47a.37.37,0,0,0,.37-.37V82.85h30.3a.34.34,0,0,0,.34-.34V54.12h16.3a.33.33,0,0,0,.33-.33V35.91h27.88a.29.29,0,0,0,.3-.3V30.46h19.09v4.69a.27.27,0,0,0,.27.27h28.52a.27.27,0,0,0,.26-.27V6.63A.26.26,0,0,0,1265.59,6.37ZM1141.52,90.84h-38.73V52.12h33.33V82.51a.35.35,0,0,0,.34.34h5.06Zm0-8.67h-4.72V52.12h4.72Zm30.7,0h-30V51.74a.37.37,0,0,0-.37-.37h-5.09V46.75h16.67v7a.34.34,0,0,0,.34.33h18.41Zm0-28.72h-18.08v-6.7h18.08Zm16.64,0h-16v-7a.34.34,0,0,0-.34-.34h-18.42V18.73h31.39V35.61a.29.29,0,0,0,.3.3h3Zm0-18.13h-2.73V18.73h2.73Zm28.25,0h-27.58V18.4a.34.34,0,0,0-.33-.34h-3.07V4.33h27.23V30.17a.28.28,0,0,0,.28.29h3.47Zm0-5.44h-3.18V4.33h3.18Zm20.23-23h6.48v23h-6.48Zm28,28h-28V30.46h6.77a.29.29,0,0,0,.29-.29V6.9h20.92ZM978.62,4.93H917.17a.58.58,0,0,0-.58.58V48H877.92a.73.73,0,0,0-.73.73v77.5a.73.73,0,0,0,.73.73h77.5a.73.73,0,0,0,.73-.73V67.53h22.47a.58.58,0,0,0,.58-.58V5.51A.58.58,0,0,0,978.62,4.93ZM954.69,125.47h-76v-76h37.94V67a.58.58,0,0,0,.58.58h37.52Zm0-59.1H917.75V49.43h36.94Zm23.35,0H956.15V48.7a.73.73,0,0,0-.73-.73H917.75V6.09H978ZM1317.5,88.64h-31.85a.3.3,0,0,0-.3.3v31.85a.31.31,0,0,0,.3.3h31.85a.3.3,0,0,0,.3-.3V88.94A.29.29,0,0,0,1317.5,88.64Zm-.3,31.85H1286V89.24h31.25Zm89.83,5.13v-.34h-14.89a.16.16,0,0,0-.17.17v17.18h-10.53a.19.19,0,0,0-.19.18v19.68a.2.2,0,0,0,.19.19h19.68a.19.19,0,0,0,.18-.19V143.71H1407v-.34h-5.73v-.56a.18.18,0,0,0-.18-.18h-8.81v-17Zm-6.1,36.69h-19.3V143H1392v.54a.16.16,0,0,0,.17.17h8.79Zm0-19.31v.37h-8.62V143Zm-20.5,2.45h-19.35a.19.19,0,0,0-.18.19V165a.19.19,0,0,0,.18.19h19.35a.19.19,0,0,0,.18-.19V145.64A.19.19,0,0,0,1380.43,145.45Zm-.18,19.35h-19v-19h19Zm-5.66-74.32h-15.36a.15.15,0,0,0-.15.14V106a.15.15,0,0,0,.15.14h15.36a.15.15,0,0,0,.15-.14V90.62A.15.15,0,0,0,1374.59,90.48Zm-.14,15.36h-15.08V90.77h15.08Zm-31.89,18h-36.87a.35.35,0,0,0-.34.35V161a.34.34,0,0,0,.34.34h36.87a.35.35,0,0,0,.35-.34V124.16A.35.35,0,0,0,1342.56,123.81Zm-.35,36.87H1306V124.51h36.17ZM1404,8h-9.23V0h-.35V8h-8.57a.17.17,0,0,0-.17.17v3.08h-9.49V0h-.35V11.43a.18.18,0,0,0,.18.18h9.66V26.33a.18.18,0,0,0,.17.17H1404a.17.17,0,0,0,.17-.17V8.18A.16.16,0,0,0,1404,8Zm-18,.34h8.4v2.91H1386Zm17.81,17.81H1386V11.61h8.58a.18.18,0,0,0,.17-.18V8.35h9.06ZM1407,46.42v-.36h-14.39a.18.18,0,0,0-.18.18V65.7a.18.18,0,0,0,.18.18H1407v-.37h-14.2V46.42Zm-59-10.68h-29.46a.28.28,0,0,0-.28.28V65.48a.27.27,0,0,0,.28.28h29.46a.28.28,0,0,0,.28-.28V36A.29.29,0,0,0,1348.07,35.74Zm-.28,29.47h-28.9V36.3h28.9ZM1237.12,194h-29.46a.29.29,0,0,0-.28.28v7.09h.56v-6.81h28.91v6.81h.55V194.3A.28.28,0,0,0,1237.12,194Zm150-156.78H1364.3a.22.22,0,0,0-.22.22V60.3a.22.22,0,0,0,.22.21h22.84a.21.21,0,0,0,.21-.21V37.46A.21.21,0,0,0,1387.14,37.24Zm-.22,22.84h-22.41V37.67h22.41Z"/></g></g></svg>