<svg xmlns="http://www.w3.org/2000/svg" viewBox="0 0 1412.28 369.54"><defs><style>.cls-1{fill:#fff;opacity:0.5;}</style></defs><title>header-bg-full</title><g id="Layer_2" data-name="Layer 2"><g id="Layer_1-2" data-name="Layer 1"><path class="cls-1" d="M860,217.93H776.44V183.65h52a.65.65,0,0,0,.65-.65V113.26a.66.66,0,0,0-.65-.66H809.11V90a.72.72,0,0,0-.72-.72H740.64V64.36a.9.9,0,0,0-.9-.9H645a.89.89,0,0,0-.89.9V142h-45a.86.86,0,0,0-.86.86v67.84H580.57a1,1,0,0,0-1,1v91.88h-6.12V221.75a1,1,0,0,0-1-1H478.35v-47H588a1.14,1.14,0,0,0,1.14-1.14V52.38A1.14,1.14,0,0,0,588,51.24H467.74a1.14,1.14,0,0,0-1.14,1.14v9.67H437.42V19.65a.93.93,0,0,0-.93-.93h-98.1a.93.93,0,0,0-.92.93V76.42H304V53.53a.9.9,0,0,0-.9-.9h-95.2a.9.9,0,0,0-.9.9v61.91H150.58V1.39A1.4,1.4,0,0,0,149.18,0H1.39A1.39,1.39,0,0,0,0,1.39V149.18a1.4,1.4,0,0,0,1.39,1.4H88.5V280.67a1.55,1.55,0,0,0,1.55,1.55H233.73v15.56a.76.76,0,0,0,.75.76h80.28a.76.76,0,0,0,.75-.76V263H328v22.54a.73.73,0,0,0,.73.72h39v15.73a.52.52,0,0,0,.52.52h55.13a.52.52,0,0,0,.52-.52V275.79h41.37V328a1,1,0,0,0,1,1h87v32a.54.54,0,0,0,.53.54H610.7a.54.54,0,0,0,.54-.54V314.7h71.39a1,1,0,0,0,1-1V234.53h6.3a.86.86,0,0,0,.85-.86V160h40.87v6a.71.71,0,0,0,.71.72h25.77v15.46H703.33a.68.68,0,0,0-.69.68v72.43a.68.68,0,0,0,.69.68h15.08v29.85h-1.25a.75.75,0,0,0-.75.76v80.28a.75.75,0,0,0,.75.76h80.29a.76.76,0,0,0,.76-.76V312.65h3a.76.76,0,0,0,.66-.4H860a.87.87,0,0,0,.87-.87V218.8A.87.87,0,0,0,860,217.93ZM468.87,53.51h118v118H478.35v-8.86h31.51a.93.93,0,0,0,.93-.94V63a.93.93,0,0,0-.93-.93h-41Zm0,109.15h6.74v8.86h-6.74Zm-56.82-32.41H466.6v30.54H412.05Zm56.82,0h6.74v30.54h-6.74Zm8.11-2.74h-8.11V63.91h40.06v96.88H478.35V128.88A1.37,1.37,0,0,0,477,127.51ZM466.6,63.91v63.6H412.05v-8.84h24.44a.93.93,0,0,0,.93-.92V63.91Zm-56.41,63.6H375.93v-8.84h34.26Zm1.86-10.69V63.91h23.51v52.91ZM339.32,20.57h96.24V62.05H411.12a.93.93,0,0,0-.93.93v53.84H375.93V77.44a1,1,0,0,0-1-1H339.32Zm0,57.9h34.56v38.35H339.32Zm-1.85,0v39.28a.92.92,0,0,0,.92.92h35.49v8.84H331.44a1.37,1.37,0,0,0-1.37,1.37V185H278.5v-10a.85.85,0,0,0-.86-.86H267.31V149.63h35.81a.9.9,0,0,0,.9-.9V78.47Zm36.41,51.78V185H332.81V130.25Zm-63.07,73.46v13H278.5V187.09h51.57v16.07h-18.7A.56.56,0,0,0,310.81,203.71Zm-75.57,61.55v-47h17v47Zm17,1.71v12.16h-17V267Zm-18.47-1.71H187.47V175.94H252.2v40.81H234.48a.76.76,0,0,0-.75.76Zm21.56-47h21.49v47H255.29Zm0-1.51V175.94h10v10.12a1,1,0,0,0,1,1h10.49v29.66Zm0-42.53V149.63h10v24.59ZM276.78,185h-9.47v-9.1h9.47Zm-9.47-37.21V78.47h34.91v69.36Zm-58.49-93.4h93.4v22H266.29a1,1,0,0,0-1,1v70.39h-10V117a1.54,1.54,0,0,0-1.55-1.54H208.82Zm0,64.09H252.2v29.31H208.82Zm-206,29.27V2.79h145V115.44H90.05A1.55,1.55,0,0,0,88.5,117v30.81Zm145-29.27v29.27H91.59V118.52ZM91.59,279.13V150.58h57.59a1.4,1.4,0,0,0,1.4-1.4V118.52H207v30.21a.91.91,0,0,0,.9.9H252.2v24.59H186.61a.85.85,0,0,0-.86.86v91a.85.85,0,0,0,.86.85h47.12v12.16ZM314,297H235.24v-14.8h18.5a1.54,1.54,0,0,0,1.55-1.55V267h22.35a.85.85,0,0,0,.86-.85V218.26h32.31V262.4a.56.56,0,0,0,.56.55H314Zm0-35.18h-2.08V218.26H314Zm1.51,0V217.51a.76.76,0,0,0-.75-.76h-2.84V204.27h18.15V208h-1.33a.73.73,0,0,0-.73.72v53.14Zm54-53.86H332.81v-3.71H369.5Zm35.3,38.31H370.6V209.43h34.2Zm18.07,26.76H406.25V247.33h16.62Zm-18.07,0h-36V263h1.27a.55.55,0,0,0,.55-.55V247.33h34.2Zm0,2.74v9h-36v-9Zm-72-12.84h34.93v10.1H332.81Zm36-1.11V247.33h.72v14.51Zm.72-15.55h-1.24a.52.52,0,0,0-.52.52v15H332.81V209.43H369.5Zm-39.43,15.55h-.61V209.43h.61Zm-.61,22.92V263h.61v11.47a1.37,1.37,0,0,0,1.37,1.37h36.3v9Zm93.41,16.66H368.78V286.21h36.74a.73.73,0,0,0,.73-.72v-9.7h16.62Zm1-28.37V246.81a.52.52,0,0,0-.52-.52H406.25V208.7a.73.73,0,0,0-.73-.72H370.6v-4.27a.55.55,0,0,0-.55-.55H332.81V187.09h42.1a1,1,0,0,0,1-1V130.25h34.26v31.47a.93.93,0,0,0,.93.94H466.6v10a1.14,1.14,0,0,0,1.14,1.14h7.87v47h-9.33a1,1,0,0,0-1,1v51.3Zm51.7-50.3v50.3h-8.33v-50.3ZM467.28,327V275.79H477a1.37,1.37,0,0,0,1.37-1.37V222.75h93.14v80.81H553.81a.54.54,0,0,0-.53.54V327Zm104.21-22.33V327H554.35V304.63Zm38.67,55.82H554.35V329h18.14a1,1,0,0,0,1-1V304.63h6.12v9.11a1,1,0,0,0,1,1h29.59Zm0-47.68H581.54v-8.14h28.62Zm71.51,0H611.24V304.1a.54.54,0,0,0-.54-.54H581.54V212.64h16.7v21a.86.86,0,0,0,.86.86h82.57Zm0-80H600V212.64h81.72Zm7.36,0h-5.44V211.68a1,1,0,0,0-1-1H600v-67h44.13v15.39a.89.89,0,0,0,.89.89H689Zm0-74.57H645.87v-14.5H689Zm1.71,0V142.88a.86.86,0,0,0-.85-.86h-44V65.25h93v24h-6.53a.72.72,0,0,0-.71.72v68.24Zm48.11-67.52v67.52H733V90.72ZM733,165.35V160h6.7a.89.89,0,0,0,.9-.89V90.72h67V112.6H758.75a.67.67,0,0,0-.66.66v52.09Zm74.63-51.43v51.43H759.41V113.92Zm-48.26,52.87h49a.72.72,0,0,0,.72-.72V113.92h18.72v68.42H776.07a.66.66,0,0,0-.32-.09H759.41ZM704,254.68V183.62h54.55a1.08,1.08,0,0,0,.19,0h16.32v34.28h-7.64a.87.87,0,0,0-.87.87v10.27H719.18a.78.78,0,0,0-.77.77v24.84Zm96.43,55.82h-2.23V286.65a.76.76,0,0,0-.76-.76H768.31V256h7.44a.68.68,0,0,0,.69-.68V230.62h24ZM720,287.4h46.6v23.7H720Zm76.73,23.1H768.31V287.4h28.38Zm-21.62-55.82h-6.76V230.62h6.76Zm-8.51,0H720V230.62h46.6Zm1.75-25.61v-9.39h6.76v9.39ZM720,256h46.6v29.85H720Zm76.73,110.14H717.92V287.4h.49v24.48a.78.78,0,0,0,.77.77h77.51Zm62.44-55.68H802V229.84a.78.78,0,0,0-.77-.77H776.44v-9.39h82.69Zm440.1-66.9h-30.11V214.9h8.64a.32.32,0,0,0,.33-.32V179.66a.33.33,0,0,0-.33-.33h-20.59v-8.6a.32.32,0,0,0-.32-.32h1.43a.26.26,0,0,0,.26-.26V142.83a.26.26,0,0,0-.26-.26H1231a.26.26,0,0,0-.26.26v5.95h-21.46a.31.31,0,0,0-.31.31v17.29h-12.75a.3.3,0,0,0-.3.31v22.68h-3.43a.33.33,0,0,0-.33.33v35a.33.33,0,0,0,.33.33h35a.33.33,0,0,0,.33-.33V204.24h14.7V208H1229a.37.37,0,0,0-.38.37v22H1204.5a.42.42,0,0,0-.42.42v44.06a.42.42,0,0,0,.42.42h44.06a.42.42,0,0,0,.42-.42V248.5h5.8v39.55a.42.42,0,0,0,.42.42h44a.42.42,0,0,0,.42-.42V244A.41.41,0,0,0,1299.23,243.6Zm-68-100.51H1258v26.79h-15.81V149.09a.31.31,0,0,0-.31-.31h-10.67Zm0,6.3h10.36v20.49h-10.36Zm-21.67,0h21.15v20.75a.26.26,0,0,0,.26.26h-2.29v-3.72a.31.31,0,0,0-.3-.31h-18.82ZM1224,199.18h3.19v4.43H1224Zm0-.61V190h3.19v8.54ZM1196.49,190h26.85v8.54h-26.85Zm31-.66H1224v-7.32h4.1v16.52h-.25V189.7A.33.33,0,0,0,1227.49,189.37Zm-3.52-7.94V171h4.1v10.39ZM1209.56,167h18.51v3.42h-4.42a.31.31,0,0,0-.31.32v10.7h-13.78Zm19.12,4h12.91v10.39h-12.91Zm-32.19-4h12.45v14.75a.31.31,0,0,0,.31.31h14.09v7.32h-26.85Zm30.67,57.41h-34.37V190h3.1v8.84a.3.3,0,0,0,.3.31h27.15v4.75a.31.31,0,0,0,.31.31h3.51Zm.66-20.79v-4.43h.56a.31.31,0,0,0,.3-.31V182.05h13.22a.31.31,0,0,0,.31-.31V171h14.33v8.29h-13.69a.33.33,0,0,0-.33.33v24ZM1256.54,180v23.62h-13.36V180Zm-13.36,24.25h13.67a.31.31,0,0,0,.32-.31V180h20.26v34.26h-8.31v-5.92a.37.37,0,0,0-.38-.37h-25.56Zm0,4.47h25.19v5.54h-25.19Zm5,65.66h-43.24V231.13h23.66v17a.38.38,0,0,0,.38.37h19.2Zm0-26.62h-18.83V231.13h18.83Zm.83,0v-17a.42.42,0,0,0-.42-.42h-19.24V208.71h13.2v5.87a.32.32,0,0,0,.33.32h25.52v28.7H1255.2a.41.41,0,0,0-.42.41v3.74Zm19.39-3.32v3.32h-12.76v-3.32Zm30.45,43.2h-43.21V248.5h13.13a.38.38,0,0,0,.38-.37v-3.7h29.7Zm79.29-43.57V227.55h5a.17.17,0,0,0,.17-.17V209.32a.16.16,0,0,0-.17-.17h-18.06a.17.17,0,0,0-.17.17v14.83h-6.7a.19.19,0,0,0-.18.19v19.72a.18.18,0,0,0,.18.19h19.73A.18.18,0,0,0,1378.11,244.06Zm-12.87-34.57H1383v17.72h-4.85v-2.87a.19.19,0,0,0-.18-.19h-12.69Zm0,15h12.5v2.68h-12.5Zm-6.85,19.35V224.53h6.51v2.85a.18.18,0,0,0,.17.17h12.67v16.33Zm-226.13,23.74h-41.88V218.57a.5.5,0,0,0-.49-.5h-39.57V183.21a.45.45,0,0,0-.45-.45H1001.3a.46.46,0,0,0-.46.45v48.57a.47.47,0,0,0,.46.46h35.21v39.21a.5.5,0,0,0,.5.5h42.46v48.46a.49.49,0,0,0,.49.49h52.3a.49.49,0,0,0,.49-.49v-52.3A.49.49,0,0,0,1132.26,267.62Zm-130.5-36.3V183.67h47.65v34.4H1037a.5.5,0,0,0-.5.5v12.75Zm47.65-12.25v12.25h-11.9V219.07ZM1037.51,271V232.24h12.36a.46.46,0,0,0,.45-.46V219.07h39.07v48.55H1080a.49.49,0,0,0-.49.49V271Zm51.88-2.35V271h-8.94V268.6Zm42.38,51.31h-51.32V272h9.44a.49.49,0,0,0,.49-.5V268.6h41.39Zm139.45-191.45a.22.22,0,0,0-.22.22v22.9a.22.22,0,0,0,.22.22h22.9a.22.22,0,0,0,.22-.22V131.2h17.72a.28.28,0,0,0,.28-.28V101a.29.29,0,0,0-.28-.28h-29.92a.28.28,0,0,0-.28.28v27.46Zm22.69,22.91h-22.47V128.89h10.42v2a.27.27,0,0,0,.28.28h11.77Zm0-20.73h-11.49v-1.75h11.49Zm-11.49-29.35h29.35v29.35h-17.43v-2a.22.22,0,0,0-.22-.22h-11.7ZM1303,182v-20.7a.2.2,0,0,0-.19-.19h-20.7a.2.2,0,0,0-.2.19V182a.2.2,0,0,0,.2.2h20.7A.2.2,0,0,0,1303,182Zm-.39-.2H1282.3v-20.3h20.31ZM1157.73,119h24.54a.23.23,0,0,0,.23-.23V94.22a.23.23,0,0,0-.23-.23h-24.54a.23.23,0,0,0-.23.23v24.54A.23.23,0,0,0,1157.73,119Zm.23-24.54H1182v24.08H1158Zm89,13.17h29.46a.27.27,0,0,0,.27-.28V77.89a.27.27,0,0,0-.27-.28h-29.46a.27.27,0,0,0-.27.28v29.45A.27.27,0,0,0,1246.94,107.62Zm.28-29.45h28.9v28.89h-28.9ZM1021.65,179.46h46.65a.44.44,0,0,0,.44-.44V137.18h19.62a.34.34,0,0,0,.34-.33V101.48a.34.34,0,0,0-.34-.33h-11V83.1a.36.36,0,0,0-.36-.36h-38.15a.36.36,0,0,0-.36.36v38.15a.36.36,0,0,0,.36.36h13.79v10.32h-31a.44.44,0,0,0-.44.44V179A.44.44,0,0,0,1021.65,179.46Zm17.59-58.57V83.46h37.43v17.69H1053a.33.33,0,0,0-.33.33v19.41Zm37.43-19.07v19.07h-23.34V101.82Zm-23.34,19.79H1077a.36.36,0,0,0,.36-.36V101.82H1088v34.69h-19.29v-4.14a.44.44,0,0,0-.44-.44h-15Zm0,11.2h14.53v3.7h-14.53Zm-31.24,0h30.58v4a.33.33,0,0,0,.33.33h14.86v41.4h-45.77Zm-.51,104.66H969.24a.49.49,0,0,0-.49.49V290.3a.49.49,0,0,0,.49.5h52.34a.5.5,0,0,0,.5-.5V238A.49.49,0,0,0,1021.58,237.47Zm-.49,52.34H969.74V238.46h51.35Zm126.67-94.35a.36.36,0,0,0-.36.36v19.54h-18.11a.41.41,0,0,0-.41.41V259a.42.42,0,0,0,.41.41h43.2a.42.42,0,0,0,.41-.41V234.63h13.31a.36.36,0,0,0,.36-.36V195.82a.36.36,0,0,0-.36-.36Zm24.32,63.1H1129.7V216.18h17.7v18.09a.36.36,0,0,0,.36.36h24.32Zm0-24.66h-23.95V216.18h23.95Zm13.77,0H1172.9V215.77a.41.41,0,0,0-.41-.41h-24.36V196.18h37.72Zm-83.43-39.61h39.47a.37.37,0,0,0,.37-.37v-8.37h30.3a.34.34,0,0,0,.34-.34V156.83h16.3a.34.34,0,0,0,.33-.34V138.61h27.88a.29.29,0,0,0,.3-.29v-5.16h19.09v4.69a.27.27,0,0,0,.27.27h28.52a.28.28,0,0,0,.27-.27V109.34a.28.28,0,0,0-.27-.27H1244.4V102.4a.29.29,0,0,0-.29-.28h-30.47a.28.28,0,0,0-.28.28v4h-27.53a.29.29,0,0,0-.3.29v14h-31.72a.34.34,0,0,0-.34.33v27.67h-17a.35.35,0,0,0-.34.35v5h-33.7a.37.37,0,0,0-.37.37v39.47A.38.38,0,0,0,1102.42,194.29Zm162.9-84.68v28h-28v-4.42h6.77a.29.29,0,0,0,.29-.29V109.61Zm-28,23v-23h6.48v23Zm-23.41-29.89h29.89v6.38h-6.75a.27.27,0,0,0-.27.27v23.24h-19.09V106.73a.29.29,0,0,0-.3-.29h-3.48Zm0,4.34h3.18v25.55h-3.18Zm-27.8,0h27.23v25.84a.28.28,0,0,0,.28.29h3.47V138h-27.58V121.1a.33.33,0,0,0-.33-.33h-3.07Zm0,14.4h2.73V138h-2.73Zm-32,0h31.39v16.89a.29.29,0,0,0,.3.29h3v17.55h-16v-7a.35.35,0,0,0-.34-.35h-18.42Zm0,28h18.08v6.7h-18.08Zm-17.34,0h16.67v7a.34.34,0,0,0,.34.34h18.41v28h-30V154.45a.36.36,0,0,0-.37-.37h-5.09Zm0,5.36h4.72v30.05h-4.72Zm-34,0h33.33v30.39a.34.34,0,0,0,.34.34h5.06v8h-38.73ZM978.62,170.24a.58.58,0,0,0,.58-.58V108.21a.58.58,0,0,0-.58-.58H917.18a.57.57,0,0,0-.58.58v42.47H877.92a.73.73,0,0,0-.73.73V228.9a.73.73,0,0,0,.73.73h77.5a.73.73,0,0,0,.73-.73V170.24Zm-60.87-61.45H978v60.29H956.15V151.41a.73.73,0,0,0-.73-.73H917.75Zm0,43.35h36.94v16.94H917.75Zm36.94,76h-76v-76h38v17.52a.57.57,0,0,0,.58.58h37.51Zm330.66-36.53v31.85a.3.3,0,0,0,.3.3h31.85a.29.29,0,0,0,.3-.3V191.64a.3.3,0,0,0-.3-.3h-31.85A.31.31,0,0,0,1285.35,191.64Zm.6.3h31.25v31.25H1286ZM388.68,311.58H331.79a.54.54,0,0,0-.54.53V369a.54.54,0,0,0,.54.54h56.89a.54.54,0,0,0,.53-.54V312.11A.53.53,0,0,0,388.68,311.58Zm-.54,56.88H332.33V312.65h55.81ZM1410.23,228h-18.09a.17.17,0,0,0-.17.17v17.18h-10.53a.2.2,0,0,0-.19.19v19.67a.19.19,0,0,0,.19.19h19.68a.18.18,0,0,0,.18-.19V246.42h8.93a.17.17,0,0,0,.17-.18V228.15A.17.17,0,0,0,1410.23,228Zm-9.3,37h-19.3V245.7H1392v.54a.17.17,0,0,0,.17.18h8.79Zm0-18.94h-8.62v-.37h8.62Zm9.13,0h-8.76v-.55a.19.19,0,0,0-.18-.19h-8.81v-17h17.75Zm-29.63,2.09h-19.35a.18.18,0,0,0-.18.18v19.35a.18.18,0,0,0,.18.18h19.35a.18.18,0,0,0,.18-.18V248.34A.18.18,0,0,0,1380.43,248.16Zm-.18,19.34h-19v-19h19Zm-21-58.66h15.36a.15.15,0,0,0,.15-.15V193.33a.15.15,0,0,0-.15-.15h-15.36a.15.15,0,0,0-.15.15v15.36A.15.15,0,0,0,1359.23,208.84Zm.14-15.37h15.08v15.08h-15.08Zm-16.81,33h-36.87a.35.35,0,0,0-.34.35v36.87a.35.35,0,0,0,.34.35h36.87a.35.35,0,0,0,.35-.35V226.86A.35.35,0,0,0,1342.56,226.51Zm-.35,36.87H1306V227.21h36.17ZM1376,114.31h9.66V129a.17.17,0,0,0,.17.17H1404a.16.16,0,0,0,.17-.17V110.88a.17.17,0,0,0-.17-.17h-9.23V95.55a.18.18,0,0,0-.17-.17H1376a.18.18,0,0,0-.18.17v18.58A.18.18,0,0,0,1376,114.31Zm27.81-3.26v17.81H1386V114.31h8.58a.18.18,0,0,0,.17-.18v-3.08ZM1386,114v-2.91h8.4V114Zm-9.83-18.23h18.23v15h-8.57a.18.18,0,0,0-.17.17V114h-9.49Zm35.94,53h-19.46a.18.18,0,0,0-.18.18V168.4a.18.18,0,0,0,.18.18h19.46a.18.18,0,0,0,.18-.18V148.94A.18.18,0,0,0,1412.1,148.76Zm-.18,19.46h-19.09V149.13h19.09Zm-63.85-29.77h-29.46a.27.27,0,0,0-.28.27v29.47a.28.28,0,0,0,.28.28h29.46a.28.28,0,0,0,.28-.28V138.72A.27.27,0,0,0,1348.07,138.45Zm-.28,29.46h-28.9V139h28.9ZM1237.12,296.73h-29.46a.28.28,0,0,0-.28.27v10.09h-35a.46.46,0,0,0-.47.46v49.21a.47.47,0,0,0,.47.46h49.2a.46.46,0,0,0,.46-.46v-30h15.12a.28.28,0,0,0,.28-.28V297A.27.27,0,0,0,1237.12,296.73Zm-16,59.56H1172.8V308h34.58v18.45a.29.29,0,0,0,.28.28h13.42Zm0-30.1h-13.14V308h13.14Zm15.77,0H1222V307.55a.45.45,0,0,0-.46-.46h-13.6v-9.81h28.91Zm127.45-163h22.84a.21.21,0,0,0,.21-.21V140.16a.21.21,0,0,0-.21-.22H1364.3a.22.22,0,0,0-.22.22V163A.21.21,0,0,0,1364.3,163.21Zm.21-22.83h22.41v22.4h-22.41Z"/></g></g></svg>