<svg xmlns="http://www.w3.org/2000/svg" viewBox="0 0 38.26 39.55"><defs><style>.cls-1{fill:none;stroke:#fff;stroke-linecap:round;stroke-linejoin:round;stroke-width:2px;}</style></defs><title>logo</title><g id="Layer_2" data-name="Layer 2"><g id="Layer_1-2" data-name="Layer 1"><path class="cls-1" d="M37.26,15V36.82a1.72,1.72,0,0,1-1.72,1.73H13.66a1.73,1.73,0,0,1-1.73-1.73v-7H24.6A1.73,1.73,0,0,0,26.33,28V15.66h5a1,1,0,0,0,1-1V13.22h3.18A1.72,1.72,0,0,1,37.26,15Z"/><path class="cls-1" d="M26.33,15.66V28a1.73,1.73,0,0,1-1.73,1.73H2.72A1.72,1.72,0,0,1,1,28V6.17A1.72,1.72,0,0,1,2.72,4.44h15V14.66a1,1,0,0,0,1,1Z"/><path class="cls-1" d="M32.36,2V14.66a1,1,0,0,1-1,1H18.7a1,1,0,0,1-1-1V2a1,1,0,0,1,1-1H31.36A1,1,0,0,1,32.36,2Z"/></g></g></svg>